<svg width="26" height="25" viewBox="0 0 26 25" fill="none" xmlns="http://www.w3.org/2000/svg">
<path d="M19.0556 2C19.4096 2.00039 19.75 2.13458 20.0075 2.37517C20.2649 2.61575 20.4198 2.94456 20.4405 3.29442C20.4613 3.64428 20.3463 3.98877 20.1191 4.25752C19.8919 4.52627 19.5696 4.69898 19.2181 4.74038L19.0556 4.75H4.47222C4.29869 4.74968 4.13132 4.8137 4.00308 4.92945C3.87484 5.0452 3.79502 5.20428 3.77934 5.37538C3.76366 5.54648 3.81326 5.71719 3.91836 5.85389C4.02347 5.9906 4.17646 6.08339 4.34722 6.114L4.47222 6.125H23.2222C23.923 6.12478 24.598 6.38681 25.1119 6.85856C25.6257 7.33031 25.9405 7.97691 25.9931 8.66875L26 8.875V21.25C26.0002 21.9438 25.7355 22.612 25.259 23.1208C24.7825 23.6295 24.1294 23.9411 23.4306 23.9931L23.2222 24H3.77778C3.07698 24.0002 2.40199 23.7382 1.88813 23.2664C1.37426 22.7947 1.0595 22.1481 1.00694 21.4562L1 21.25V5.4375C0.999864 4.56476 1.33505 3.72465 1.93756 3.08756C2.54007 2.45048 3.36479 2.06413 4.24444 2.00688L4.47222 2H19.0556ZM3.77778 8.80625V21.25H23.2222V8.875H4.47222C4.31389 8.875 4.15694 8.864 4.00417 8.84475L3.77778 8.80625ZM18.3611 13C18.9136 13 19.4435 13.2173 19.8342 13.6041C20.2249 13.9909 20.4444 14.5155 20.4444 15.0625C20.4444 15.6095 20.2249 16.1341 19.8342 16.5209C19.4435 16.9077 18.9136 17.125 18.3611 17.125C17.8086 17.125 17.2787 16.9077 16.888 16.5209C16.4973 16.1341 16.2778 15.6095 16.2778 15.0625C16.2778 14.5155 16.4973 13.9909 16.888 13.6041C17.2787 13.2173 17.8086 13 18.3611 13Z" fill="#012D21"/>
</svg>
