<svg width="201" height="239" viewBox="0 0 201 239" fill="none" xmlns="http://www.w3.org/2000/svg">
<rect x="12.0145" y="35.4945" width="89.0377" height="13.7547" transform="rotate(4 12.0145 35.4945)" fill="#056045" stroke="white" stroke-width="3"/>
<rect x="35.6635" y="11.2738" width="89.0377" height="13.7547" transform="rotate(4 35.6635 11.2738)" fill="#056045" stroke="white" stroke-width="3"/>
<path d="M23.4152 202.319L21.9188 202.214L21.8142 203.71L21.064 214.439L20.9594 215.935L22.4557 216.04L108.284 222.042L109.78 222.146L109.885 220.65L110.635 209.921L110.74 208.425L109.243 208.32L23.4152 202.319Z" fill="#056045" stroke="white" stroke-width="3"/>
<rect x="2.65223" y="174.993" width="89.0377" height="13.7547" transform="rotate(4 2.65223 174.993)" fill="#056045" stroke="white" stroke-width="3"/>
<path d="M134.883 107.678C107.17 98.319 98.6261 90.0491 99.4576 78.1583C100.412 64.5152 113.637 55.8809 134.653 57.3505C156.789 58.8984 164.253 70.1114 163.905 85.8094L191.388 87.7312C192.023 66.1418 180.348 45.4524 154.804 37.2515L156.721 9.84015L119.413 7.23136L117.523 34.2672C93.0296 37.8372 72.5269 52.2515 70.8377 76.4086C68.8159 105.322 91.5617 121.377 125.671 132.189C156.236 141.873 161.683 153.323 160.869 164.963C160.265 173.6 153.209 186.942 125.726 185.02C100.108 183.229 90.8404 171.009 90.5052 156.144L63.1465 154.231C62.722 181.746 82.0401 198.568 105.558 205.369L103.659 232.53L140.966 235.139L142.848 208.228C167.422 205.293 187.686 192.497 189.48 166.838C191.966 131.291 162.596 117.037 134.883 107.678Z" fill="#056045"/>
</svg>
