<svg width="27" height="25" viewBox="0 0 27 25" fill="none" xmlns="http://www.w3.org/2000/svg">
<path d="M21.0001 2.80244C21.0001 2.80244 23.5001 1.54869 25.0513 2.81869C25.3038 3.02244 25.6188 3.42744 25.7576 3.72369C26.0001 4.24494 26.0001 4.74995 26.0001 5.76245V19.5237C26.0001 20.7812 24.7001 21.645 23.5001 21.365C22.2702 21.0825 21.012 20.942 19.7501 20.9462C17.3538 20.9462 15.165 21.4287 13.5 22.2237C11.835 23.0187 9.64627 23.5 7.25002 23.5C5.91751 23.5 4.65001 23.35 3.50001 23.0825C2.76125 22.9087 2.39125 22.8225 1.94875 22.465C1.65715 22.2112 1.41733 21.9035 1.2425 21.5587C1 21.0375 1 20.5325 1 19.5212V5.76245C1 4.50244 2.3 3.63744 3.50001 3.91994C4.46876 4.14619 5.52126 4.28744 6.62502 4.32619" stroke="#012D21" stroke-width="2" stroke-linecap="round" stroke-linejoin="round"/>
<path d="M5.375 16.625V16.6363M21.625 14.115V14.1275M10.375 5.37501C10.99 6.00751 12.625 8.50002 13.5 8.50002M13.5 8.50002C14.375 8.50002 16.01 6.00751 16.625 5.37501M13.5 8.50002V1M16.625 15.375C16.625 16.2038 16.2958 16.9987 15.7097 17.5848C15.1237 18.1708 14.3288 18.5 13.5 18.5C12.6712 18.5 11.8764 18.1708 11.2903 17.5848C10.7043 16.9987 10.375 16.2038 10.375 15.375C10.375 14.5462 10.7043 13.7514 11.2903 13.1653C11.8764 12.5793 12.6712 12.25 13.5 12.25C14.3288 12.25 15.1237 12.5793 15.7097 13.1653C16.2958 13.7514 16.625 14.5462 16.625 15.375Z" stroke="#012D21" stroke-width="2" stroke-linecap="round" stroke-linejoin="round"/>
</svg>
