<svg width="636" height="607" viewBox="0 0 636 607" fill="none" xmlns="http://www.w3.org/2000/svg">
<g filter="url(#filter0_dddd_114_44)">
<path d="M102.546 501.61C209.056 556.064 381.74 556.066 488.248 501.611C594.757 447.155 594.757 358.866 488.248 304.411C381.739 249.955 209.053 249.955 102.544 304.41C-3.9636 358.865 -3.96361 447.155 102.546 501.61Z" fill="#F5F5F5"/>
<path d="M450.877 414.614C456.714 417.984 468.186 416.825 476.5 412.025L524.423 384.192C532.736 379.392 534.734 372.763 528.886 369.386C523.036 366.01 511.556 367.166 503.244 371.97L455.358 399.815C447.047 404.618 445.04 411.244 450.877 414.614Z" fill="#EBEBEB"/>
<path d="M162.373 440.281L113.629 412.138L162.373 383.995V440.281Z" fill="#EBEBEB"/>
<path d="M300.143 457.118L221.579 411.73L300.162 366.43L300.143 457.118Z" fill="#EBEBEB"/>
<path d="M96.4332 374.479C96.57 363.078 88.608 339.362 76.9548 324.416C65.3016 309.47 46.83 298.422 33.5628 302.784C21.2052 306.846 22.344 323.008 37.1472 333.886C51.9504 344.764 74.2332 358.474 80.5764 377.046L94.0812 399.902L96.4332 374.479Z" fill="url(#paint0_linear_114_44)"/>
<path opacity="0.1" d="M96.4332 374.479C96.57 363.078 88.608 339.362 76.9548 324.416C65.3016 309.47 46.83 298.422 33.5628 302.784C21.2052 306.846 22.344 323.008 37.1472 333.886C51.9504 344.764 74.2332 358.474 80.5764 377.046L94.0812 399.902L96.4332 374.479Z" fill="black"/>
<path d="M97.0872 390.091C96.7248 390.058 96.414 389.786 96.3444 389.412C89.178 350.401 58.074 318.388 39.3132 311.171C38.8848 311.005 38.67 310.523 38.8344 310.094C38.9976 309.667 39.4704 309.443 39.9108 309.616C59.028 316.968 90.708 349.507 97.9824 389.111C98.0664 389.563 97.7664 389.996 97.314 390.079C97.2384 390.095 97.1616 390.098 97.0872 390.091Z" fill="white"/>
<path d="M90.984 414.934C89.2296 408.503 81.528 397.832 68.9724 388.944C55.0824 379.111 37.4112 374.454 33.4152 366.883C28.6152 357.788 36.3348 349.342 50.7 351.299C65.0652 353.256 90.126 373.19 93.8136 402.793L90.984 414.934Z" fill="url(#paint1_linear_114_44)"/>
<path d="M93.8484 408.242C93.5328 408.214 93.2484 408.004 93.1368 407.683C81.6024 374.197 56.304 362.189 44.5404 360.517C44.0856 360.454 43.7688 360.03 43.8324 359.575C43.8972 359.118 44.3004 358.801 44.7744 358.867C57.7836 360.715 82.9392 372.961 94.7124 407.141C94.8624 407.575 94.6296 408.05 94.1952 408.2C94.0812 408.24 93.9624 408.252 93.8484 408.242Z" fill="white"/>
<path d="M521.91 342.028C521.91 342.028 523.51 317.989 537.676 300.146C551.842 282.302 550.97 274.955 541.204 271.352C531.437 267.75 508.748 289.255 513.797 318.053C518.845 346.85 521.91 342.028 521.91 342.028Z" fill="url(#paint2_linear_114_44)"/>
<path opacity="0.1" d="M521.91 342.028C521.91 342.028 523.51 317.989 537.676 300.146C551.842 282.302 550.97 274.955 541.204 271.352C531.437 267.75 508.748 289.255 513.797 318.053C518.845 346.85 521.91 342.028 521.91 342.028Z" fill="black"/>
<path d="M517.583 328.297C517.29 328.297 517.044 328.069 517.026 327.774C515.371 301.303 534.066 279.584 541.063 274.669C541.313 274.493 541.663 274.553 541.841 274.805C542.018 275.057 541.957 275.405 541.705 275.582C534.845 280.402 516.516 301.709 518.141 327.704C518.16 328.012 517.926 328.277 517.619 328.296C517.606 328.297 517.594 328.297 517.583 328.297Z" fill="white"/>
<path d="M518.059 361.878C518.059 361.878 526.596 364.836 537.565 366.574C548.534 368.31 553.375 363.065 553.375 363.065C553.375 363.065 549.055 352.776 542.826 349.89C542.826 349.89 553.387 352.043 561.864 357.698C561.864 357.698 568.562 357.8 571.229 347.576C571.229 347.576 567.26 341.424 553.945 338.1C553.945 338.1 562.046 336.061 573.72 339.038C574.595 339.386 578.327 326.168 579.456 320.07C580.584 313.972 578.134 314.036 573.38 312.767C568.626 311.497 552.881 307.961 549.905 310.576C546.929 313.19 545.417 322.13 545.417 322.13C545.417 322.13 543.456 316.855 544.97 310.799C544.97 310.799 540.692 309.127 534.053 311.058C528.622 312.638 528.358 316.333 528.604 320.51C528.784 323.563 529.519 326.815 530.954 331.112C530.954 331.112 526.721 325.687 526.59 313.922C526.59 313.922 515.477 319.444 513.58 330.474C512.552 336.438 511.098 353.954 518.059 361.878Z" fill="url(#paint3_linear_114_44)"/>
<path d="M520.154 359.732C520.384 359.732 520.604 359.604 520.71 359.383C529.562 340.993 562.472 319.624 574.261 317.33C574.595 317.266 574.814 316.942 574.75 316.607C574.685 316.272 574.357 316.057 574.026 316.12C562.043 318.451 528.592 340.165 519.6 358.849C519.452 359.156 519.581 359.525 519.888 359.672C519.974 359.713 520.064 359.732 520.154 359.732Z" fill="white"/>
<path d="M92.1372 423.437C90.7764 423.437 89.9628 422.312 89.9628 420.43V218.579L337.157 75.8616L337.158 276.9C337.158 279.984 334.984 283.75 332.312 285.293L94.1064 422.821C93.4092 423.223 92.7276 423.437 92.1372 423.437Z" fill="#FAFAFA"/>
<path d="M336.455 77.0772L336.456 276.9C336.456 279.713 334.398 283.278 331.962 284.684L93.756 422.213C93.1644 422.554 92.6052 422.735 92.1372 422.735C90.8088 422.735 90.6648 421.122 90.6648 420.43V218.983L336.455 77.0772ZM337.858 74.6448L89.262 218.173V420.428C89.262 422.779 90.4332 424.138 92.1372 424.138C92.8356 424.138 93.624 423.91 94.458 423.428L332.663 285.9C335.532 284.243 337.859 280.213 337.859 276.9L337.858 74.6448Z" fill="#E0E0E0"/>
<path d="M89.262 218.173V251.946L337.856 108.42L337.858 74.6448L89.262 218.173Z" fill="url(#paint4_linear_114_44)"/>
<path d="M108.758 219.976L108.76 224.819C108.76 225.809 109.462 226.213 110.318 225.719L186.75 181.591L186.749 173.148L110.317 217.276C109.459 217.77 108.758 218.986 108.758 219.976Z" fill="#FAFAFA"/>
<path d="M194.94 168.419C195.8 167.922 196.499 168.325 196.499 169.319V174.162C196.499 175.156 195.8 176.365 194.94 176.862L186.75 181.591L186.749 173.148L194.94 168.419Z" fill="#043F2E"/>
<path d="M89.262 207.288C89.262 203.974 91.5888 199.945 94.458 198.288L332.662 60.7596C335.532 59.1024 337.858 60.4464 337.858 63.7596V74.6448L89.262 218.173V207.288Z" fill="#043F2E"/>
<path d="M310.23 79.3632C308.884 80.1408 307.793 82.0308 307.793 83.5848C307.793 85.1388 308.884 85.77 310.23 84.9924C311.576 84.2148 312.667 82.3248 312.667 80.7708C312.667 79.2156 311.575 78.5856 310.23 79.3632Z" fill="url(#paint5_linear_114_44)"/>
<path d="M317.951 74.8992C316.604 75.6768 315.514 77.5668 315.514 79.1208C315.514 80.6748 316.604 81.306 317.951 80.5284C319.297 79.7508 320.388 77.8608 320.388 76.3068C320.388 74.7516 319.297 74.1216 317.951 74.8992Z" fill="url(#paint6_linear_114_44)"/>
<path d="M325.672 70.4352C324.325 71.2128 323.234 73.1028 323.234 74.6568C323.234 76.212 324.325 76.842 325.672 76.0644C327.018 75.2868 328.109 73.3968 328.109 71.8428C328.109 70.2876 327.018 69.6576 325.672 70.4352Z" fill="url(#paint7_linear_114_44)"/>
<g opacity="0.1">
<path d="M259.866 130.41C256.924 132.109 254.538 136.241 254.538 139.639C254.538 143.038 256.924 144.415 259.866 142.716C262.808 141.017 265.194 136.885 265.194 133.487C265.194 130.088 262.808 128.711 259.866 130.41Z" fill="black"/>
<path d="M235.494 144.481C232.552 146.18 230.166 150.312 230.166 153.71C230.166 157.109 232.552 158.486 235.494 156.787C238.436 155.088 240.822 150.956 240.822 147.558C240.822 144.16 238.436 142.782 235.494 144.481Z" fill="black"/>
<path d="M284.238 116.338C281.296 118.037 278.91 122.168 278.91 125.567C278.91 128.965 281.296 130.343 284.238 128.644C287.18 126.944 289.566 122.813 289.566 119.414C289.566 116.017 287.18 114.64 284.238 116.338Z" fill="black"/>
<path d="M308.611 102.24C305.669 103.939 303.283 108.071 303.283 111.469C303.283 114.868 305.669 116.245 308.611 114.546C311.554 112.847 313.939 108.715 313.939 105.317C313.938 101.918 311.554 100.541 308.611 102.24Z" fill="black"/>
</g>
<path d="M113.954 254.575L171.804 221.176C174.673 219.518 177 220.862 177 224.176V279.718C177 283.031 174.673 287.06 171.804 288.718L113.956 322.118C111.086 323.776 108.76 322.432 108.76 319.118L108.758 263.575C108.758 260.262 111.085 256.232 113.954 254.575Z" fill="#E0E0E0"/>
<path d="M196.825 206.732L318.038 136.746C320.908 135.089 323.234 136.433 323.234 139.746V195.288C323.234 198.601 320.908 202.631 318.038 204.288L196.826 274.274C193.957 275.932 191.63 274.589 191.63 271.274L191.629 215.731C191.629 212.419 193.955 208.39 196.825 206.732Z" fill="#E0E0E0"/>
<path d="M113.956 339.004L205.926 285.905C208.795 284.248 211.122 285.425 211.123 288.533C211.123 291.641 208.798 295.504 205.927 297.161L113.956 350.261C111.086 351.918 108.76 350.741 108.76 347.633C108.76 344.524 111.085 340.661 113.956 339.004Z" fill="#E0E0E0"/>
<path d="M113.956 358.7L205.926 305.602C208.795 303.944 211.122 305.122 211.123 308.23C211.123 311.338 208.798 315.2 205.927 316.858L113.956 369.958C111.086 371.615 108.76 370.438 108.76 367.33C108.76 364.22 111.085 360.358 113.956 358.7Z" fill="#E0E0E0"/>
<path d="M113.956 378.398L205.926 325.3C208.795 323.642 211.122 324.82 211.123 327.928C211.123 331.036 208.798 334.898 205.927 336.556L113.956 389.656C111.086 391.313 108.76 390.136 108.76 387.028C108.76 383.917 111.085 380.054 113.956 378.398Z" fill="#E0E0E0"/>
<path d="M157.504 311.608C157.504 309.619 158.899 307.201 160.621 306.208L320.114 214.124C321.836 213.131 324.628 213.13 326.35 214.124L329.863 216.154C331.585 217.147 332.981 219.565 332.981 221.554V343.808C332.981 345.788 331.578 348.218 329.863 349.208L170.37 441.292C168.655 442.282 165.85 442.282 164.135 441.292L160.621 439.264C158.906 438.274 157.504 435.844 157.504 433.864V311.608Z" fill="url(#paint8_linear_114_44)"/>
<path opacity="0.4" d="M158.413 308.537L167.262 313.64L332.065 218.482C331.505 217.508 330.724 216.653 329.868 216.151L326.342 214.13C324.631 213.127 321.829 213.127 320.118 214.13L160.625 306.208C159.755 306.707 158.974 307.562 158.413 308.537Z" fill="white"/>
<path opacity="0.1" d="M157.499 311.604V433.856C157.499 435.847 158.9 438.266 160.626 439.254L164.136 441.289C164.401 441.437 164.682 441.57 164.992 441.673C165.39 441.806 165.817 441.91 166.274 441.968C167.086 442.072 167.941 442.043 168.738 441.88C168.944 441.835 169.151 441.776 169.343 441.718C169.476 441.673 169.594 441.629 169.711 441.57C169.136 441.776 168.635 441.746 168.222 441.54C167.632 441.23 167.263 440.522 167.263 439.49V317.238C167.263 315.955 167.912 314.981 168.886 314.584L167.263 313.64L158.414 308.537C157.853 309.51 157.499 310.615 157.499 311.604Z" fill="black"/>
<path opacity="0.2" d="M167.262 313.639L241.124 341.234C246.39 343.196 252.304 341.249 255.372 336.545L267.233 318.373L332.656 218.142L269.598 319.056L332.98 343.861C332.965 344.864 332.596 345.985 332.006 346.973L269.42 319.339L255.637 341.398C252.467 346.457 246.065 348.433 240.608 346.014L230.795 341.682L168.222 441.541C167.632 441.232 167.263 440.524 167.263 439.492V437.456L230.489 341.548L167.262 313.639Z" fill="black"/>
<path d="M298.862 173.286V453.97C298.862 457.283 301.189 458.627 304.058 456.97L430.152 384.17C433.021 382.513 435.348 378.484 435.348 375.17V94.4868C435.348 91.1736 433.021 89.8296 430.152 91.4868L304.058 164.286C301.189 165.943 298.862 169.973 298.862 173.286Z" fill="#FAFAFA" stroke="#E0E0E0" stroke-width="1.1698" stroke-miterlimit="10"/>
<path d="M306.17 178.517C306.17 177.739 306.775 176.76 307.522 176.329L321.886 168.04C322.632 167.609 323.237 167.89 323.237 168.667C323.237 169.444 322.632 170.423 321.886 170.854L307.523 179.144C306.775 179.574 306.17 179.293 306.17 178.517Z" fill="#043F2E"/>
<path d="M306.17 184.106C306.17 183.329 306.775 182.35 307.522 181.919L321.886 173.629C322.632 173.198 323.237 173.479 323.237 174.257C323.237 175.034 322.632 176.012 321.886 176.443L307.523 184.734C306.775 185.164 306.17 184.883 306.17 184.106Z" fill="#043F2E"/>
<path d="M306.17 189.696C306.17 188.918 306.775 187.939 307.522 187.508L321.886 179.219C322.632 178.788 323.237 179.069 323.237 179.846C323.237 180.624 322.632 181.602 321.886 182.033L307.523 190.324C306.775 190.753 306.17 190.472 306.17 189.696Z" fill="#043F2E"/>
<path d="M425.598 117.721V115.48C425.598 115.345 425.5 115.282 425.377 115.337L423.649 116.116C423.527 116.171 423.402 116.11 423.361 115.982C423.26 115.664 423.131 115.379 422.976 115.126C422.906 115.012 422.891 114.827 422.95 114.707L424.102 112.385C424.162 112.265 424.115 112.114 424 112.046L422.749 111.325C422.634 111.258 422.479 111.294 422.405 111.406L420.97 113.564C420.895 113.676 420.727 113.754 420.594 113.75C420.298 113.743 419.984 113.773 419.659 113.845C419.528 113.874 419.413 113.796 419.4 113.663L419.21 111.778C419.197 111.644 419.093 111.59 418.976 111.658L417.035 112.778C416.92 112.846 416.815 113.008 416.803 113.141L416.609 115.301C416.597 115.434 416.506 115.614 416.407 115.704C416.029 116.052 415.668 116.435 415.328 116.845C415.243 116.948 415.073 116.998 414.947 116.953L413.7 116.518C413.574 116.473 413.417 116.532 413.351 116.647L411.924 119.119C411.857 119.236 411.886 119.4 411.986 119.488L412.986 120.349C413.088 120.437 413.13 120.608 413.083 120.733C412.898 121.232 412.746 121.736 412.634 122.238C412.606 122.369 412.495 122.537 412.386 122.615L410.612 123.863C410.503 123.94 410.414 124.111 410.414 124.244V126.486C410.414 126.62 410.513 126.684 410.635 126.629L412.363 125.85C412.486 125.795 412.61 125.856 412.651 125.983C412.752 126.301 412.882 126.587 413.036 126.84C413.106 126.954 413.122 127.139 413.063 127.259L411.911 129.581C411.851 129.701 411.898 129.852 412.013 129.919L413.263 130.64C413.378 130.708 413.533 130.672 413.608 130.56L415.043 128.401C415.117 128.29 415.285 128.212 415.418 128.214C415.715 128.221 416.028 128.191 416.353 128.119C416.484 128.09 416.599 128.168 416.612 128.302L416.802 130.188C416.815 130.321 416.921 130.375 417.036 130.308L418.978 129.187C419.093 129.12 419.197 128.958 419.209 128.825L419.404 126.665C419.416 126.532 419.507 126.352 419.605 126.262C419.983 125.914 420.343 125.531 420.683 125.12C420.768 125.017 420.938 124.968 421.064 125.012L422.31 125.447C422.436 125.491 422.593 125.432 422.66 125.317L424.087 122.845C424.154 122.73 424.126 122.564 424.025 122.477L423.025 121.615C422.923 121.528 422.881 121.356 422.928 121.231C423.113 120.732 423.265 120.228 423.377 119.726C423.406 119.596 423.516 119.428 423.625 119.35L425.399 118.102C425.509 118.026 425.598 117.856 425.598 117.721ZM418.008 124.77C416.197 125.815 414.728 124.968 414.728 122.876C414.728 120.785 416.197 118.242 418.008 117.197C419.819 116.152 421.288 116.999 421.288 119.09C421.286 121.181 419.819 123.724 418.008 124.77Z" fill="#37474F"/>
<path d="M367.105 173.041C381.839 164.534 393.782 171.431 393.782 188.443C393.782 205.456 381.839 226.142 367.105 234.649C352.372 243.156 340.428 236.26 340.428 219.247C340.429 202.234 352.373 181.547 367.105 173.041Z" fill="#043F2E"/>
<path d="M366.918 186.43C371.698 183.67 375.572 185.906 375.572 191.425C375.572 196.945 371.698 203.657 366.918 206.416C362.138 209.174 358.264 206.939 358.264 201.419C358.264 195.9 362.138 189.188 366.918 186.43Z" fill="url(#paint9_linear_114_44)"/>
<path d="M383.975 215.86C383.975 206.791 377.608 203.116 369.756 207.65L364.847 210.485C356.995 215.018 350.628 226.045 350.628 235.112V237.586C352.045 238.056 353.585 238.289 355.211 238.292C358.793 238.3 362.825 237.12 367.105 234.649C373.506 230.953 379.378 224.956 383.975 217.963V215.86Z" fill="url(#paint10_linear_114_44)"/>
<path d="M343.027 259.961L391.184 232.157C392.62 231.329 393.782 231.917 393.782 233.471C393.782 235.025 392.62 236.957 391.184 237.785L343.027 265.589C341.592 266.417 340.429 265.829 340.429 264.275C340.429 262.721 341.592 260.79 343.027 259.961Z" fill="url(#paint11_linear_114_44)"/>
<path d="M337.859 279.848L396.353 246.041C397.788 245.213 398.951 245.801 398.951 247.355C398.951 248.909 397.788 250.841 396.353 251.669L337.859 285.476C336.424 286.304 335.261 285.716 335.261 284.162C335.261 282.608 336.424 280.676 337.859 279.848Z" fill="#043F2E"/>
<path d="M397.912 273.294L414.29 263.837C415.151 263.34 415.849 263.567 415.849 264.344C415.849 265.122 415.151 266.155 414.29 266.652L397.912 276.109C397.051 276.606 396.353 276.379 396.353 275.602C396.353 274.824 397.051 273.791 397.912 273.294Z" fill="#37474F"/>
<path d="M316.085 314.916L340.135 301.031C341.57 300.203 342.733 300.874 342.733 302.531V319.045C342.733 320.702 341.57 322.717 340.135 323.545L316.085 337.43C314.65 338.258 313.487 337.588 313.487 335.93V319.416C313.487 317.759 314.65 315.744 316.085 314.916Z" fill="url(#paint12_linear_114_44)"/>
<path d="M319.921 317.224L336.3 307.766C337.16 307.27 337.859 307.496 337.859 308.274C337.859 309.052 337.16 310.085 336.3 310.582L319.921 320.039C319.061 320.536 318.362 320.309 318.362 319.531C318.362 318.754 319.06 317.72 319.921 317.224Z" fill="#FAFAFA"/>
<path d="M318.362 325.553V330.395C318.362 331.388 319.061 331.792 319.921 331.295L336.3 321.838C337.16 321.341 337.859 320.131 337.859 319.138V314.294C337.859 313.301 337.162 312.898 336.3 313.394L319.92 322.852C319.06 323.35 318.362 324.558 318.362 325.553Z" fill="#FAFAFA"/>
<path d="M355.08 292.402L379.13 278.516C380.566 277.688 381.728 278.359 381.728 280.016V296.531C381.728 298.188 380.566 300.203 379.13 301.031L355.08 314.916C353.645 315.744 352.482 315.073 352.482 313.416V296.902C352.482 295.246 353.645 293.231 355.08 292.402Z" fill="url(#paint13_linear_114_44)"/>
<path d="M358.916 294.71L375.295 285.253C376.156 284.756 376.854 284.983 376.854 285.761C376.854 286.538 376.156 287.572 375.295 288.068L358.916 297.526C358.056 298.022 357.358 297.796 357.358 297.018C357.358 296.24 358.055 295.207 358.916 294.71Z" fill="#FAFAFA"/>
<path d="M357.358 303.04V307.882C357.358 308.875 358.056 309.278 358.916 308.782L375.295 299.324C376.156 298.828 376.854 297.618 376.854 296.624L376.855 291.781C376.855 290.788 376.157 290.384 375.296 290.881L358.916 300.338C358.055 300.836 357.358 302.045 357.358 303.04Z" fill="#FAFAFA"/>
<path d="M394.075 269.887L418.126 256.002C419.561 255.174 420.724 255.845 420.724 257.502V274.016C420.724 275.674 419.561 277.688 418.126 278.516L394.075 292.402C392.64 293.23 391.477 292.559 391.477 290.902V274.387C391.477 272.73 392.641 270.715 394.075 269.887Z" fill="url(#paint14_linear_114_44)"/>
<path d="M397.912 272.195L414.29 262.738C415.151 262.241 415.849 262.468 415.849 263.245C415.849 264.023 415.152 265.056 414.29 265.553L397.912 275.01C397.051 275.507 396.353 275.28 396.353 274.502C396.353 273.725 397.051 272.693 397.912 272.195Z" fill="#FAFAFA"/>
<path d="M396.353 280.524V285.366C396.353 286.36 397.051 286.763 397.912 286.266L414.29 276.809C415.151 276.312 415.849 275.102 415.849 274.109V269.266C415.849 268.272 415.152 267.869 414.29 268.366L397.91 277.823C397.051 278.321 396.353 279.53 396.353 280.524Z" fill="#FAFAFA"/>
<path d="M318.683 352.816L415.528 296.902C418.398 295.244 420.724 296.422 420.724 299.53C420.724 302.638 418.397 306.502 415.528 308.158L318.683 364.072C315.814 365.729 313.487 364.552 313.487 361.444C313.487 358.334 315.814 354.472 318.683 352.816Z" fill="#E0E0E0"/>
<path d="M318.683 375.329L415.528 319.415C418.398 317.758 420.724 318.935 420.724 322.043C420.724 325.151 418.397 329.015 415.528 330.671L318.683 386.585C315.814 388.242 313.487 387.065 313.487 383.957C313.487 380.849 315.814 376.986 318.683 375.329Z" fill="#E0E0E0"/>
<path d="M350.207 385.272L384.006 365.758C385.441 364.93 386.604 365.6 386.604 367.258V378.143C386.604 379.8 385.441 381.815 384.006 382.643L350.207 402.157C348.772 402.985 347.609 402.314 347.609 400.657V389.772C347.608 388.115 348.772 386.1 350.207 385.272Z" fill="url(#paint15_linear_114_44)"/>
<path d="M320.798 354.469C319.452 355.247 318.361 357.137 318.361 358.691C318.361 360.245 319.452 360.875 320.798 360.098C322.145 359.322 323.236 357.431 323.236 355.877C323.236 354.322 322.145 353.692 320.798 354.469Z" fill="#FAFAFA"/>
<path d="M328.519 350.004C327.173 350.782 326.082 352.672 326.082 354.226C326.082 355.78 327.173 356.411 328.519 355.633C329.866 354.856 330.956 352.966 330.956 351.412C330.956 349.858 329.866 349.228 328.519 350.004Z" fill="#FAFAFA"/>
<path d="M336.241 345.54C334.895 346.318 333.804 348.208 333.804 349.762C333.804 351.316 334.895 351.947 336.241 351.169C337.588 350.392 338.678 348.502 338.678 346.948C338.678 345.394 337.586 344.764 336.241 345.54Z" fill="#FAFAFA"/>
<path d="M343.962 341.076C342.616 341.854 341.525 343.744 341.525 345.298C341.525 346.852 342.616 347.482 343.962 346.705C345.308 345.928 346.399 344.038 346.399 342.484C346.399 340.93 345.308 340.298 343.962 341.076Z" fill="#FAFAFA"/>
<path d="M351.683 336.612C350.336 337.39 349.246 339.28 349.246 340.834C349.246 342.388 350.336 343.019 351.683 342.241C353.029 341.464 354.12 339.574 354.12 338.02C354.12 336.466 353.029 335.834 351.683 336.612Z" fill="#FAFAFA"/>
<path d="M359.405 332.148C358.058 332.926 356.968 334.816 356.968 336.37C356.968 337.924 358.058 338.555 359.405 337.777C360.751 337 361.842 335.11 361.842 333.556C361.842 332.002 360.75 331.37 359.405 332.148Z" fill="#FAFAFA"/>
<path d="M367.126 327.684C365.779 328.462 364.688 330.352 364.688 331.906C364.688 333.46 365.779 334.09 367.126 333.313C368.472 332.536 369.563 330.646 369.563 329.092C369.563 327.536 368.472 326.906 367.126 327.684Z" fill="#FAFAFA"/>
<path d="M320.798 377.008C319.452 377.785 318.361 379.675 318.361 381.229C318.361 382.783 319.452 383.414 320.798 382.637C322.145 381.859 323.236 379.969 323.236 378.415C323.236 376.861 322.145 376.23 320.798 377.008Z" fill="#FAFAFA"/>
<path d="M328.519 372.544C327.173 373.321 326.082 375.211 326.082 376.765C326.082 378.319 327.173 378.949 328.519 378.173C329.866 377.395 330.956 375.505 330.956 373.951C330.956 372.396 329.866 371.766 328.519 372.544Z" fill="#FAFAFA"/>
<path d="M336.241 368.08C334.895 368.857 333.804 370.747 333.804 372.301C333.804 373.855 334.895 374.486 336.241 373.709C337.588 372.931 338.678 371.041 338.678 369.487C338.678 367.932 337.586 367.302 336.241 368.08Z" fill="#FAFAFA"/>
<path d="M343.962 363.614C342.616 364.392 341.525 366.282 341.525 367.836C341.525 369.39 342.616 370.021 343.962 369.244C345.308 368.466 346.399 366.576 346.399 365.022C346.399 363.468 345.308 362.838 343.962 363.614Z" fill="#FAFAFA"/>
<path d="M351.683 359.15C350.336 359.928 349.246 361.818 349.246 363.372C349.246 364.926 350.336 365.556 351.683 364.78C353.029 364.002 354.12 362.112 354.12 360.558C354.12 359.004 353.029 358.374 351.683 359.15Z" fill="#FAFAFA"/>
<path d="M359.405 354.686C358.058 355.464 356.968 357.354 356.968 358.908C356.968 360.462 358.058 361.093 359.405 360.316C360.751 359.538 361.842 357.648 361.842 356.094C361.841 354.54 360.75 353.909 359.405 354.686Z" fill="#FAFAFA"/>
<path d="M367.126 350.222C365.779 351 364.688 352.89 364.688 354.444C364.688 355.998 365.779 356.629 367.126 355.852C368.472 355.075 369.563 353.184 369.563 351.63C369.563 350.075 368.472 349.445 367.126 350.222Z" fill="#FAFAFA"/>
<path d="M475.423 400.956C471.214 400.956 467.221 399.918 463.606 397.831C454.958 392.838 449.999 382.388 449.999 369.162C449.999 345.904 464.782 319.147 483.654 308.252C493.816 302.387 503.906 301.75 512.072 306.464C520.721 311.458 525.679 321.907 525.679 335.134C525.679 358.392 510.896 385.148 492.024 396.043C486.362 399.311 480.721 400.956 475.423 400.956ZM500.215 320.095C497.189 320.095 493.991 321.616 492.024 322.751C478.319 330.664 466.74 351.917 466.74 369.162C466.74 376.142 468.697 381.439 471.976 383.333C475.709 385.488 480.894 383.136 483.653 381.545C497.358 373.632 508.937 352.379 508.937 335.134C508.937 328.153 506.98 322.856 503.701 320.963C502.628 320.342 501.436 320.095 500.215 320.095Z" fill="#043F2E"/>
<path d="M511.932 338.857C511.932 325.793 503.701 320.963 503.701 320.963C506.98 322.856 508.937 328.153 508.937 335.134C508.937 352.378 497.358 373.631 483.653 381.545C480.894 383.136 475.709 385.488 471.977 383.334C471.977 383.334 478.922 387.644 488.519 382.41C502.412 374.83 511.932 356.101 511.932 338.857Z" fill="#37474F"/>
<path d="M498.73 175.553C498.73 170.772 494.855 166.897 490.074 166.897C485.293 166.897 481.418 170.772 481.418 175.553C481.418 175.561 481.42 175.568 481.42 175.576H481.418V313.225C481.418 314.504 482.263 315.784 483.954 316.759C487.334 318.71 492.815 318.71 496.195 316.759C497.885 315.784 498.731 314.504 498.731 313.225V175.577H498.73C498.728 175.568 498.73 175.561 498.73 175.553Z" fill="#37474F"/>
<path d="M491.815 206.312C491.815 203.125 489.577 199.248 486.817 197.654C485.413 196.843 484.148 196.787 483.241 197.339L483.236 197.332L461.879 209.636L461.362 209.944C461.287 209.981 461.214 210.018 461.153 210.067C460.783 210.313 460.439 210.596 460.132 210.904C458.839 212.183 458.04 213.967 458.04 215.924C458.04 218.606 459.529 220.945 461.719 222.151C462.728 222.692 463.873 223 465.103 223C466.321 223 467.478 222.692 468.475 222.151C468.611 222.077 468.746 221.992 468.881 221.917L490.374 209.539L490.37 209.533C491.262 209.005 491.815 207.894 491.815 206.312Z" fill="#043F2E"/>
<path d="M491.815 240.782C491.815 237.595 489.577 233.718 486.817 232.124C485.413 231.314 484.148 231.257 483.241 231.809L483.236 231.802L458.204 246.176L457.687 246.484C457.613 246.521 457.54 246.558 457.478 246.607C457.109 246.853 456.764 247.136 456.457 247.444C455.165 248.723 454.366 250.507 454.366 252.464C454.366 255.146 455.855 257.485 458.045 258.691C459.054 259.232 460.198 259.541 461.429 259.541C462.647 259.541 463.804 259.234 464.801 258.691C464.936 258.617 465.071 258.532 465.206 258.457L490.374 244.008L490.37 244.002C491.262 243.476 491.815 242.364 491.815 240.782Z" fill="#043F2E"/>
</g>
<defs>
<filter id="filter0_dddd_114_44" x="-5" y="-4" width="661" height="668" filterUnits="userSpaceOnUse" color-interpolation-filters="sRGB">
<feFlood flood-opacity="0" result="BackgroundImageFix"/>
<feColorMatrix in="SourceAlpha" type="matrix" values="0 0 0 0 0 0 0 0 0 0 0 0 0 0 0 0 0 0 127 0" result="hardAlpha"/>
<feOffset dx="2" dy="3"/>
<feGaussianBlur stdDeviation="3.5"/>
<feColorMatrix type="matrix" values="0 0 0 0 0.0156863 0 0 0 0 0.247059 0 0 0 0 0.180392 0 0 0 0.1 0"/>
<feBlend mode="normal" in2="BackgroundImageFix" result="effect1_dropShadow_114_44"/>
<feColorMatrix in="SourceAlpha" type="matrix" values="0 0 0 0 0 0 0 0 0 0 0 0 0 0 0 0 0 0 127 0" result="hardAlpha"/>
<feOffset dx="9" dy="10"/>
<feGaussianBlur stdDeviation="7"/>
<feColorMatrix type="matrix" values="0 0 0 0 0.0156863 0 0 0 0 0.247059 0 0 0 0 0.180392 0 0 0 0.09 0"/>
<feBlend mode="normal" in2="effect1_dropShadow_114_44" result="effect2_dropShadow_114_44"/>
<feColorMatrix in="SourceAlpha" type="matrix" values="0 0 0 0 0 0 0 0 0 0 0 0 0 0 0 0 0 0 127 0" result="hardAlpha"/>
<feOffset dx="19" dy="24"/>
<feGaussianBlur stdDeviation="9"/>
<feColorMatrix type="matrix" values="0 0 0 0 0.0156863 0 0 0 0 0.247059 0 0 0 0 0.180392 0 0 0 0.05 0"/>
<feBlend mode="normal" in2="effect2_dropShadow_114_44" result="effect3_dropShadow_114_44"/>
<feColorMatrix in="SourceAlpha" type="matrix" values="0 0 0 0 0 0 0 0 0 0 0 0 0 0 0 0 0 0 127 0" result="hardAlpha"/>
<feOffset dx="34" dy="42"/>
<feGaussianBlur stdDeviation="11"/>
<feColorMatrix type="matrix" values="0 0 0 0 0.0156863 0 0 0 0 0.247059 0 0 0 0 0.180392 0 0 0 0.01 0"/>
<feBlend mode="normal" in2="effect3_dropShadow_114_44" result="effect4_dropShadow_114_44"/>
<feBlend mode="normal" in="SourceGraphic" in2="effect4_dropShadow_114_44" result="shape"/>
</filter>
<linearGradient id="paint0_linear_114_44" x1="60.7638" y1="301.822" x2="60.7638" y2="399.902" gradientUnits="userSpaceOnUse">
<stop stop-color="#6CE9B4"/>
<stop offset="1" stop-color="#3D8365"/>
</linearGradient>
<linearGradient id="paint1_linear_114_44" x1="62.9021" y1="351.014" x2="62.9021" y2="414.934" gradientUnits="userSpaceOnUse">
<stop stop-color="#6CE9B4"/>
<stop offset="1" stop-color="#3D8365"/>
</linearGradient>
<linearGradient id="paint2_linear_114_44" x1="530.758" y1="270.958" x2="530.758" y2="342.331" gradientUnits="userSpaceOnUse">
<stop stop-color="#6CE9B4"/>
<stop offset="1" stop-color="#3D8365"/>
</linearGradient>
<linearGradient id="paint3_linear_114_44" x1="546.218" y1="309.635" x2="546.218" y2="366.926" gradientUnits="userSpaceOnUse">
<stop stop-color="#6CE9B4"/>
<stop offset="1" stop-color="#3D8365"/>
</linearGradient>
<linearGradient id="paint4_linear_114_44" x1="213.56" y1="74.6448" x2="213.56" y2="251.946" gradientUnits="userSpaceOnUse">
<stop stop-color="#6CE9B4"/>
<stop offset="1" stop-color="#3D8365"/>
</linearGradient>
<linearGradient id="paint5_linear_114_44" x1="310.23" y1="79.03" x2="310.23" y2="85.3253" gradientUnits="userSpaceOnUse">
<stop stop-color="#6CE9B4"/>
<stop offset="1" stop-color="#3D8365"/>
</linearGradient>
<linearGradient id="paint6_linear_114_44" x1="317.951" y1="74.566" x2="317.951" y2="80.8613" gradientUnits="userSpaceOnUse">
<stop stop-color="#6CE9B4"/>
<stop offset="1" stop-color="#3D8365"/>
</linearGradient>
<linearGradient id="paint7_linear_114_44" x1="325.672" y1="70.1021" x2="325.672" y2="76.3975" gradientUnits="userSpaceOnUse">
<stop stop-color="#6CE9B4"/>
<stop offset="1" stop-color="#3D8365"/>
</linearGradient>
<linearGradient id="paint8_linear_114_44" x1="245.242" y1="213.379" x2="245.242" y2="442.034" gradientUnits="userSpaceOnUse">
<stop stop-color="#6CE9B4"/>
<stop offset="1" stop-color="#3D8365"/>
</linearGradient>
<linearGradient id="paint9_linear_114_44" x1="366.918" y1="185.247" x2="366.918" y2="207.597" gradientUnits="userSpaceOnUse">
<stop stop-color="#6CE9B4"/>
<stop offset="1" stop-color="#3D8365"/>
</linearGradient>
<linearGradient id="paint10_linear_114_44" x1="367.301" y1="205.708" x2="367.301" y2="238.292" gradientUnits="userSpaceOnUse">
<stop stop-color="#6CE9B4"/>
<stop offset="1" stop-color="#3D8365"/>
</linearGradient>
<linearGradient id="paint11_linear_114_44" x1="367.106" y1="231.782" x2="367.106" y2="265.964" gradientUnits="userSpaceOnUse">
<stop stop-color="#6CE9B4"/>
<stop offset="1" stop-color="#3D8365"/>
</linearGradient>
<linearGradient id="paint12_linear_114_44" x1="328.11" y1="300.676" x2="328.11" y2="337.785" gradientUnits="userSpaceOnUse">
<stop stop-color="#6CE9B4"/>
<stop offset="1" stop-color="#3D8365"/>
</linearGradient>
<linearGradient id="paint13_linear_114_44" x1="367.105" y1="278.162" x2="367.105" y2="315.271" gradientUnits="userSpaceOnUse">
<stop stop-color="#6CE9B4"/>
<stop offset="1" stop-color="#3D8365"/>
</linearGradient>
<linearGradient id="paint14_linear_114_44" x1="406.1" y1="255.647" x2="406.1" y2="292.756" gradientUnits="userSpaceOnUse">
<stop stop-color="#6CE9B4"/>
<stop offset="1" stop-color="#3D8365"/>
</linearGradient>
<linearGradient id="paint15_linear_114_44" x1="367.106" y1="365.403" x2="367.106" y2="402.512" gradientUnits="userSpaceOnUse">
<stop stop-color="#6CE9B4"/>
<stop offset="1" stop-color="#3D8365"/>
</linearGradient>
</defs>
</svg>
