<svg width="500" height="156" viewBox="0 0 500 156" fill="none" xmlns="http://www.w3.org/2000/svg">
<rect x="83.8734" y="41.3499" width="43" height="8" transform="rotate(4 83.8734 41.3499)" fill="#056045" stroke="white" stroke-width="3"/>
<rect x="94.8681" y="30.0894" width="43" height="8" transform="rotate(4 94.8681 30.0894)" fill="#056045" stroke="white" stroke-width="3"/>
<path d="M89.9743 118.965L88.4779 118.86L88.3733 120.356L88.0245 125.344L87.9199 126.84L89.4162 126.945L129.319 129.735L130.815 129.84L130.92 128.344L131.269 123.356L131.373 121.859L129.877 121.755L89.9743 118.965Z" fill="#056045" stroke="white" stroke-width="3"/>
<rect x="79.5209" y="106.204" width="43" height="8" transform="rotate(4 79.5209 106.204)" fill="#056045" stroke="white" stroke-width="3"/>
<path d="M141.741 75.7655C128.857 71.4145 124.885 67.5697 125.271 62.0415C125.715 55.6987 131.864 51.6845 141.634 52.3677C151.926 53.0873 155.396 58.3004 155.234 65.5986L168.011 66.492C168.306 56.4549 162.879 46.8361 151.003 43.0234L151.894 30.2795L134.549 29.0667L133.67 41.636C122.283 43.2957 112.751 49.9971 111.966 61.228C111.026 74.6702 121.601 82.1344 137.459 87.1612C151.668 91.6633 154.201 96.9863 153.823 102.398C153.542 106.413 150.261 112.616 137.484 111.723C125.574 110.89 121.265 105.209 121.109 98.2978L108.39 97.4084C108.193 110.201 117.174 118.021 128.108 121.183L127.225 133.811L144.569 135.024L145.444 122.513C156.869 121.148 166.29 115.199 167.124 103.27C168.28 86.7435 154.625 80.1165 141.741 75.7655Z" fill="#056045"/>
<path d="M188.212 82.2518C189.546 80.1718 191.386 78.4918 193.732 77.2118C196.079 75.9318 198.826 75.2918 201.972 75.2918C205.652 75.2918 208.986 76.2251 211.972 78.0918C214.959 79.9584 217.306 82.6251 219.012 86.0918C220.772 89.5584 221.652 93.5851 221.652 98.1718C221.652 102.758 220.772 106.812 219.012 110.332C217.306 113.798 214.959 116.492 211.972 118.412C208.986 120.278 205.652 121.212 201.972 121.212C198.879 121.212 196.132 120.572 193.732 119.292C191.386 118.012 189.546 116.358 188.212 114.332V141.852H174.532V75.9318H188.212V82.2518ZM207.732 98.1718C207.732 94.7584 206.772 92.0918 204.852 90.1718C202.986 88.1984 200.666 87.2118 197.892 87.2118C195.172 87.2118 192.852 88.1984 190.932 90.1718C189.066 92.1451 188.132 94.8384 188.132 98.2518C188.132 101.665 189.066 104.358 190.932 106.332C192.852 108.305 195.172 109.292 197.892 109.292C200.612 109.292 202.932 108.305 204.852 106.332C206.772 104.305 207.732 101.585 207.732 98.1718ZM270.909 97.5318C270.909 98.8118 270.829 100.145 270.669 101.532H239.709C239.922 104.305 240.802 106.438 242.349 107.932C243.949 109.372 245.896 110.092 248.189 110.092C251.602 110.092 253.976 108.652 255.309 105.772H269.869C269.122 108.705 267.762 111.345 265.789 113.692C263.869 116.038 261.442 117.878 258.509 119.212C255.576 120.545 252.296 121.212 248.669 121.212C244.296 121.212 240.402 120.278 236.989 118.412C233.576 116.545 230.909 113.878 228.989 110.412C227.069 106.945 226.109 102.892 226.109 98.2518C226.109 93.6118 227.042 89.5584 228.909 86.0918C230.829 82.6251 233.496 79.9584 236.909 78.0918C240.322 76.2251 244.242 75.2918 248.669 75.2918C252.989 75.2918 256.829 76.1984 260.189 78.0118C263.549 79.8251 266.162 82.4118 268.029 85.7718C269.949 89.1318 270.909 93.0518 270.909 97.5318ZM256.909 93.9318C256.909 91.5851 256.109 89.7184 254.509 88.3318C252.909 86.9451 250.909 86.2518 248.509 86.2518C246.216 86.2518 244.269 86.9184 242.669 88.2518C241.122 89.5851 240.162 91.4784 239.789 93.9318H256.909ZM305.326 75.4518C310.553 75.4518 314.713 77.1584 317.806 80.5718C320.953 83.9318 322.526 88.5718 322.526 94.4918V120.572H308.926V96.3318C308.926 93.3451 308.153 91.0251 306.606 89.3718C305.059 87.7184 302.979 86.8918 300.366 86.8918C297.753 86.8918 295.673 87.7184 294.126 89.3718C292.579 91.0251 291.806 93.3451 291.806 96.3318V120.572H278.126V75.9318H291.806V81.8518C293.193 79.8784 295.059 78.3318 297.406 77.2118C299.753 76.0384 302.393 75.4518 305.326 75.4518ZM329.312 98.1718C329.312 93.5851 330.166 89.5584 331.872 86.0918C333.632 82.6251 336.006 79.9584 338.992 78.0918C341.979 76.2251 345.312 75.2918 348.992 75.2918C351.926 75.2918 354.592 75.9051 356.992 77.1318C359.446 78.3584 361.366 80.0118 362.752 82.0918V61.3718H376.432V120.572H362.752V114.172C361.472 116.305 359.632 118.012 357.232 119.292C354.886 120.572 352.139 121.212 348.992 121.212C345.312 121.212 341.979 120.278 338.992 118.412C336.006 116.492 333.632 113.798 331.872 110.332C330.166 106.812 329.312 102.758 329.312 98.1718ZM362.752 98.2518C362.752 94.8384 361.792 92.1451 359.872 90.1718C358.006 88.1984 355.712 87.2118 352.992 87.2118C350.272 87.2118 347.952 88.1984 346.032 90.1718C344.166 92.0918 343.232 94.7584 343.232 98.1718C343.232 101.585 344.166 104.305 346.032 106.332C347.952 108.305 350.272 109.292 352.992 109.292C355.712 109.292 358.006 108.305 359.872 106.332C361.792 104.358 362.752 101.665 362.752 98.2518ZM431.929 75.9318L403.929 141.772H389.209L399.449 119.052L381.289 75.9318H396.569L406.889 103.852L417.129 75.9318H431.929Z" fill="#012D21"/>
</svg>
