<svg width="24" height="25" viewBox="0 0 24 25" fill="none" xmlns="http://www.w3.org/2000/svg">
<path d="M9.52 3.65625C9.78932 3.65623 10.0559 3.71061 10.3036 3.81612C10.5514 3.92162 10.7754 4.07609 10.962 4.27025L11.082 4.40725L12.48 6.15625H19C19.5046 6.15609 19.9906 6.34666 20.3605 6.68975C20.7305 7.03284 20.9572 7.50309 20.995 8.00625L21 8.15625V9.68625C21.2658 9.73276 21.5194 9.83254 21.7456 9.97958C21.9718 10.1266 22.166 10.3179 22.3164 10.5419C22.4668 10.7659 22.5703 11.018 22.6208 11.2831C22.6712 11.5481 22.6676 11.8207 22.61 12.0843L22.572 12.2312L20.172 20.2313C20.0563 20.6163 19.8273 20.9576 19.5148 21.2106C19.2022 21.4635 18.8207 21.6164 18.42 21.6493L18.256 21.6562H4C3.49542 21.6564 3.00943 21.4658 2.63945 21.1228C2.26947 20.7797 2.04284 20.3094 2.005 19.8062L2 19.6562V5.65625C1.99984 5.15167 2.19041 4.66568 2.5335 4.2957C2.87659 3.92572 3.34684 3.69909 3.85 3.66125L4 3.65625H9.52ZM20.656 11.6562H6.744L4.344 19.6562H18.256L20.656 11.6562ZM9.519 5.65625H4V13.8433L4.828 11.0813C4.95167 10.6693 5.20486 10.3081 5.55 10.0514C5.89515 9.79474 6.31386 9.65616 6.744 9.65625H19V8.15625H12.48C12.1802 8.15621 11.8843 8.08879 11.6141 7.95897C11.3439 7.82915 11.1064 7.64026 10.919 7.40625L9.519 5.65625Z" fill="#012D21"/>
</svg>
