<svg width="27" height="27" viewBox="0 0 27 27" fill="none" xmlns="http://www.w3.org/2000/svg">
<path d="M7.25 6.83756C5.9175 6.83756 4.65 6.68756 3.5 6.42006C2.3 6.13881 1 7.00256 1 8.26131V22.0226C1 23.0326 1 23.5376 1.2425 24.0588C1.38 24.3563 1.69625 24.7601 1.94875 24.9638C2.39125 25.3226 2.76125 25.4088 3.5 25.5813C4.65 25.8513 5.9175 26.0001 7.25 26.0001C9.64625 26.0001 11.835 25.5176 13.5 24.7226C15.165 23.9276 17.3537 23.4451 19.75 23.4451C21.0825 23.4451 22.35 23.5951 23.5 23.8638C24.7 24.1438 26 23.2801 26 22.0213V8.26256C26 7.25131 26 6.74631 25.7575 6.22506C25.5825 5.88075 25.3427 5.57345 25.0512 5.32006C23.5 4.04881 21 5.30256 21 5.30256" stroke="#EB1717" stroke-width="2" stroke-linecap="round" stroke-linejoin="round"/>
<path d="M5.375 16.625V16.6362M21.625 14.115V14.1275M10.375 4.125C10.99 3.4925 12.625 1 13.5 1M13.5 1C14.375 1 16.01 3.4925 16.625 4.125M13.5 1V8.5M16.625 15.375C16.625 16.2038 16.2958 16.9987 15.7097 17.5847C15.1237 18.1708 14.3288 18.5 13.5 18.5C12.6712 18.5 11.8763 18.1708 11.2903 17.5847C10.7042 16.9987 10.375 16.2038 10.375 15.375C10.375 14.5462 10.7042 13.7513 11.2903 13.1653C11.8763 12.5792 12.6712 12.25 13.5 12.25C14.3288 12.25 15.1237 12.5792 15.7097 13.1653C16.2958 13.7513 16.625 14.5462 16.625 15.375Z" stroke="#EB1717" stroke-width="2" stroke-linecap="round" stroke-linejoin="round"/>
</svg>
