<svg width="25" height="25" viewBox="0 0 25 25" fill="none" xmlns="http://www.w3.org/2000/svg">
<path d="M14.1511 2.08447C14.7036 2.08459 15.2334 2.30416 15.624 2.69489L20.2219 7.29281C20.6126 7.68342 20.8322 8.21323 20.8323 8.76572V20.8345C20.8323 21.387 20.6128 21.9169 20.2221 22.3076C19.8314 22.6983 19.3015 22.9178 18.749 22.9178H6.24898C5.69645 22.9178 5.16654 22.6983 4.77584 22.3076C4.38514 21.9169 4.16565 21.387 4.16565 20.8345V4.16781C4.16565 3.61527 4.38514 3.08537 4.77584 2.69467C5.16654 2.30397 5.69645 2.08447 6.24898 2.08447H14.1511ZM12.499 4.16781H6.24898V20.8345H18.749V10.4178H14.0615C13.6471 10.4178 13.2497 10.2532 12.9566 9.96016C12.6636 9.66714 12.499 9.26971 12.499 8.85531V4.16781ZM15.624 14.5845C15.9002 14.5845 16.1652 14.6942 16.3606 14.8896C16.5559 15.0849 16.6656 15.3499 16.6656 15.6261C16.6656 15.9024 16.5559 16.1674 16.3606 16.3627C16.1652 16.5581 15.9002 16.6678 15.624 16.6678H9.37398C9.09772 16.6678 8.83276 16.5581 8.63741 16.3627C8.44206 16.1674 8.33232 15.9024 8.33232 15.6261C8.33232 15.3499 8.44206 15.0849 8.63741 14.8896C8.83276 14.6942 9.09772 14.5845 9.37398 14.5845H15.624ZM10.4156 10.4178C10.6919 10.4178 10.9569 10.5276 11.1522 10.7229C11.3476 10.9183 11.4573 11.1832 11.4573 11.4595C11.4573 11.7357 11.3476 12.0007 11.1522 12.196C10.9569 12.3914 10.6919 12.5011 10.4156 12.5011H9.37398C9.09772 12.5011 8.83276 12.3914 8.63741 12.196C8.44206 12.0007 8.33232 11.7357 8.33232 11.4595C8.33232 11.1832 8.44206 10.9183 8.63741 10.7229C8.83276 10.5276 9.09772 10.4178 9.37398 10.4178H10.4156ZM14.5823 4.59906V8.33447H18.3177L14.5823 4.59906Z" fill="#012D21"/>
</svg>
