<svg width="25" height="25" viewBox="0 0 25 25" fill="none" xmlns="http://www.w3.org/2000/svg">
<path d="M8.9219 4.0138C9.5869 3.3478 10.7059 3.7738 10.7939 4.6758L10.7999 4.7908V20.5498C10.7996 20.8047 10.702 21.0498 10.5271 21.2352C10.3521 21.4205 10.1129 21.532 9.85851 21.547C9.60407 21.5619 9.35352 21.4791 9.15807 21.3155C8.96262 21.152 8.83701 20.9199 8.8069 20.6668L8.7999 20.5498V6.9638L6.5069 9.2568C6.32695 9.43615 6.08547 9.54028 5.83152 9.54803C5.57757 9.55579 5.33019 9.46659 5.13962 9.29856C4.94906 9.13052 4.8296 8.89625 4.8055 8.64333C4.78141 8.39041 4.85449 8.1378 5.0099 7.9368L5.0929 7.8428L8.9229 4.0128L8.9219 4.0138ZM15.7999 3.5498C16.0448 3.54984 16.2812 3.63976 16.4643 3.80252C16.6473 3.96528 16.7642 4.18955 16.7929 4.4328L16.7999 4.5498V18.1358L19.0929 15.8428C19.2729 15.6635 19.5143 15.5593 19.7683 15.5516C20.0222 15.5438 20.2696 15.633 20.4602 15.8011C20.6507 15.9691 20.7702 16.2034 20.7943 16.4563C20.8184 16.7092 20.7453 16.9618 20.5899 17.1628L20.5069 17.2568L16.6769 21.0868C16.0129 21.7518 14.8939 21.3258 14.8059 20.4238L14.7999 20.3088V4.5498C14.7999 4.28459 14.9053 4.03023 15.0928 3.8427C15.2803 3.65516 15.5347 3.5498 15.7999 3.5498Z" fill="#012D21"/>
</svg>
